
        <svg xmlns="http://www.w3.org/2000/svg" xmlns:xlink="http://www.w3.org/1999/xlink" version="1.1" width="3159.9210266535047" height="678.1836130306021" viewBox="0 0 3159.9210266535047 678.1836130306021">
			
			<g transform="scale(7.996051332675223) translate(10, 10)">
				<defs id="SvgjsDefs6948"/><g id="SvgjsG6949" featureKey="nRdZyp-0" transform="matrix(0.09232879603249973,0,0,0.09232879603249973,0.09232879603249973,0.09232879603249973)" fill="#000"><g xmlns="http://www.w3.org/2000/svg"><title>background</title><rect x="-1" y="-1" width="702" height="702" style="fill: none;"/></g><g xmlns="http://www.w3.org/2000/svg"><title>Layer 1</title><g><g><path d="M220.7,360l46.3,0l0,0l-2,96.9l0,0c-25.6-45.8-42.7-76.7-51.2-92.7L220.7,360z"/></g><g><path d="M42.2,221.9l200.3,0h0c-0.1,0.2-0.3,0.5-0.4,0.7c-11.4,21.2-32.1,58.6-62.2,112.4h0l-137.5,0h-0.3L42.2,221.9     L42.2,221.9z"/></g><g><path d="M303.8,21l100.1,173.5l0,0c-0.1,0-0.3,0-0.4,0c-0.1,0-0.3,0-0.4,0c-24,0.7-66.8,1.5-128.5,2.3l0,0L205.8,77.7     l-0.1-0.3L303.8,21L303.8,21z"/></g><g><path d="M266.3,240.7l7.1,3.9l23.1,40.1l0,0l-84.9,46.7l0,0C238.4,286.4,256.7,256.1,266.3,240.7L266.3,240.7z"/></g><g><path d="M293.6,222.4c52.5,0.8,87.8,1.4,105.9,2l0.2,8.1l0,0l-23.1,40.1l0,0L293.6,222.4L293.6,222.4L293.6,222.4z"/></g><g><path d="M429,238.9c25.6,45.8,42.6,76.7,51.2,92.7l-7,4.2l0,0l-46.3,0l0,0L429,238.9L429,238.9L429,238.9z"/></g><g><path d="M482.4,364.4c-26.9,45.1-45.1,75.3-54.7,90.7l-7.1-3.9l-23.1-40.1L482.4,364.4L482.4,364.4z"/></g><g><path d="M185.6,375.4L185.6,375.4c0.1,0.2,0.3,0.5,0.4,0.7c12.6,20.4,34.7,57.1,66.3,110.1h0l-68.7,119.1l-0.1,0.3     l-98-56.7L185.6,375.4L185.6,375.4L185.6,375.4z"/></g><g><path d="M419.5,499.1l68.7,119.1l0.1,0.3l-98.1,56.5L290.1,501.4h0c0.1,0,0.3,0,0.4,0c0.1,0,0.3,0,0.4,0     C315,500.7,357.8,499.9,419.5,499.1L419.5,499.1L419.5,499.1z"/></g><g><path d="M651.9,360.8L651.8,474l-200.3,0h0c0.1-0.2,0.3-0.5,0.4-0.7c11.4-21.2,32.1-58.6,62.2-112.4h0l137.5,0     L651.9,360.8L651.9,360.8z"/></g><g><path d="M317.5,423.3l82.9,50.2l0,0c-52.5-0.8-87.8-1.4-105.9-2l-0.2-8.1l0,0L317.5,423.3L317.5,423.3z"/></g><g><path d="M510.6,90.3l98,56.7L508.4,320.4l0,0c-0.1-0.2-0.3-0.5-0.4-0.7c-12.6-20.4-34.7-57.1-66.3-110.1h0     l68.8-119.1L510.6,90.3L510.6,90.3z"/></g></g></g></g><g id="SvgjsG6950" featureKey="Q4qmbg-0" transform="matrix(2.8530760415840497,0,0,2.8530760415840497,88.45933802604132,-10.121299483218516)" fill="#000"><path d="M6.94 5.82 l0 2.34 c-0.42 -0.38 -1.08 -0.4 -1.26 -0.4 c-1.02 0 -1.08 1.08 -1.08 1.9 l0 0.46 l2.34 0 l0 2.44 l-2.34 0 l0 7.44 l-2.96 0 l0 -7.44 l-1.1 0 l0 -2.44 l1.1 0 l0 -0.46 c0 -3.12 1.16 -4.36 3.68 -4.36 c0.6 0 1.16 0.24 1.62 0.52 z M11.107708333333333 10.12 l0 9.88 l-2.96 0 l0 -9.88 l2.96 0 z M11.187708333333333 7.279999999999999 c0 0.84 -0.68 1.5 -1.58 1.5 c-0.86 0 -1.56 -0.66 -1.56 -1.5 c0 -0.82 0.7 -1.46 1.56 -1.46 c0.9 0 1.58 0.64 1.58 1.46 z M21.415416666666665 10.12 l-3.5 4.94 l3.5 4.94 l-3.4 0 l-1.68 -2.72 l-1.68 2.72 l-3.42 0 l3.52 -4.94 l-3.52 -4.94 l3.4 0 l1.68 2.7 c0.6 -0.88 1.12 -1.84 1.7 -2.7 l3.4 0 z M31.743125 15.08 l0 0.66 l-7.04 0 c0 1.16 1.18 1.98 2.16 1.98 c0.96 0 1.84 -0.38 2.3 -1.22 l1.98 1.82 c-0.8 1.08 -2.02 1.84 -4.28 1.84 c-3.24 0 -5.22 -2.16 -5.22 -5.08 s1.92 -5.1 5.04 -5.1 s5.06 2.14 5.06 5.1 z M24.763125 13.86 l3.88 0 c-0.16 -0.94 -0.84 -1.44 -1.96 -1.44 c-1.08 0 -1.74 0.58 -1.92 1.44 z M32.37083333333333 15.08 c0 -2.92 1.92 -5.1 4.82 -5.1 c0.64 0 1.9 0.34 2.24 0.82 l0 -5.32 l2.98 0 l0 14.52 l-2.98 0 l0 -0.66 c-0.36 0.46 -1.38 0.82 -2.04 0.82 c-2.9 0 -5.02 -2.16 -5.02 -5.08 z M35.350833333333334 15.08 c0 1.56 1 2.84 2.24 2.84 c1.36 0 2.24 -1.52 2.24 -2.84 s-0.86 -2.86 -2.24 -2.86 c-1.24 0 -2.24 1.28 -2.24 2.86 z M51.72624999999999 13.24 c0 1.18 5 0.62 5 3.74 c0 2.04 -1.8 3.18 -4.04 3.18 c-1.42 0 -2.84 -0.7 -3.96 -1.82 l1.94 -1.94 c0.56 0.68 1.36 1.2 2.02 1.26 s1.22 -0.22 1.32 -0.52 c0.24 -0.76 -1.14 -0.8 -1.56 -0.92 c-1.58 -0.48 -3.42 -1.14 -3.42 -3.1 c0 -2.34 2.44 -3.14 3.66 -3.14 c1.4 0 2.82 0.64 3.96 1.8 l-1.92 1.92 c-0.52 -0.68 -1.42 -1.22 -2.04 -1.22 c-0.32 0 -0.96 0.12 -0.96 0.76 z M64.87395833333333 16.46 l2.08 1.88 c-1.12 1.24 -2.58 1.82 -4.14 1.82 c-2.88 0 -5.2 -2.16 -5.2 -5.08 s2.32 -5.1 5.2 -5.1 c1.56 0 3.02 0.58 4.14 1.82 l-2.08 1.88 c-0.44 -1.02 -1.4 -1.26 -2.06 -1.26 c-1.22 0 -2.24 1.08 -2.24 2.66 c0 1.56 1.02 2.64 2.24 2.64 c0.66 0 1.64 -0.18 2.06 -1.26 z M72.88166666666666 12.42 c-1.22 0 -2.24 1.08 -2.24 2.66 c0 1.56 1.02 2.64 2.24 2.64 c1.24 0 2.26 -1.08 2.26 -2.64 c0 -1.58 -1.02 -2.66 -2.26 -2.66 z M72.88166666666666 9.98 c2.9 0 5.22 2.18 5.22 5.1 s-2.32 5.08 -5.22 5.08 c-2.88 0 -5.2 -2.16 -5.2 -5.08 s2.32 -5.1 5.2 -5.1 z M89.429375 15.08 c0 2.92 -1.94 5.08 -4.84 5.08 c-0.6 0 -1.78 -0.36 -2.24 -0.82 l0 5.3 l-2.96 0 l0 -14.52 l2.96 0 l0 0.7 c0.42 -0.5 1.18 -0.84 2.04 -0.84 c2.9 0 5.04 2.18 5.04 5.1 z M86.44937499999999 15.08 c0 -1.58 -1.02 -2.86 -2.26 -2.86 c-0.76 0 -1.5 0.56 -1.9 1.36 c-0.18 0.4 -0.32 0.96 -0.32 1.5 c0 0.56 0.12 1.06 0.32 1.48 c0.42 0.82 1.12 1.36 1.9 1.36 c1.24 0 2.26 -1.28 2.26 -2.84 z M100.49708333333331 15.08 l0 0.66 l-7.04 0 c0 1.16 1.18 1.98 2.16 1.98 c0.96 0 1.84 -0.38 2.3 -1.22 l1.98 1.82 c-0.8 1.08 -2.02 1.84 -4.28 1.84 c-3.24 0 -5.22 -2.16 -5.22 -5.08 s1.92 -5.1 5.04 -5.1 s5.06 2.14 5.06 5.1 z M93.51708333333332 13.86 l3.88 0 c-0.16 -0.94 -0.84 -1.44 -1.96 -1.44 c-1.08 0 -1.74 0.58 -1.92 1.44 z"/></g>
			</g>
		</svg>
	